<svg xmlns="http://www.w3.org/2000/svg" viewBox="0 0 600 800" width="600" height="800" preserveAspectRatio="xMidYMid slice">
  <defs>
    <filter id="grain-travel" x="0" y="0" width="100%" height="100%">
      <feTurbulence type="fractalNoise" baseFrequency="0.65" numOctaves="3" stitchTiles="stitch" result="noise"/>
      <feColorMatrix type="matrix" values="1 0 0 0 0  0 1 0 0 0  0 0 1 0 0  0 0 0 0.04 0" result="coloredNoise"/>
      <feComposite operator="in" in2="SourceGraphic"/>
    </filter>
    <linearGradient id="vignette-travel" x1="0%" y1="0%" x2="0%" y2="100%">
      <stop offset="0%" stop-color="#000" stop-opacity="0.2"/>
      <stop offset="40%" stop-color="#000" stop-opacity="0"/>
      <stop offset="100%" stop-color="#000" stop-opacity="0.85"/>
    </linearGradient>
  </defs>
  
    <defs>
      <linearGradient id="bg-travel" x1="0%" y1="0%" x2="0%" y2="100%">
        <stop offset="0%" stop-color="#082f49"/>
        <stop offset="35%" stop-color="#0369a1"/>
        <stop offset="60%" stop-color="#38bdf8"/>
        <stop offset="78%" stop-color="#fbbf24"/>
        <stop offset="100%" stop-color="#b45309"/>
      </linearGradient>
      <radialGradient id="sun-travel" cx="50%" cy="62%" r="40%">
        <stop offset="0%" stop-color="#fffbeb" stop-opacity="1"/>
        <stop offset="30%" stop-color="#fef08a" stop-opacity="0.8"/>
        <stop offset="70%" stop-color="#f59e0b" stop-opacity="0.3"/>
        <stop offset="100%" stop-color="#000" stop-opacity="0"/>
      </radialGradient>
    </defs>
    <rect width="600" height="800" fill="url(#bg-travel)"/>
    <rect width="600" height="800" fill="url(#sun-travel)"/>
    <!-- Majestic Alpine Mountain Peaks in background -->
    <polygon points="60,500 170,320 280,500" fill="#0c4a6e" opacity="0.6"/>
    <polygon points="170,320 210,380 250,500 170,500" fill="#075985" opacity="0.7"/>
    <polygon points="220,500 350,280 480,500" fill="#082f49" opacity="0.85"/>
    <polygon points="350,280 390,340 440,500 350,500" fill="#0c4a6e" opacity="0.9"/>
    <!-- Snow peak highlight -->
    <polygon points="350,280 335,310 350,305 365,315" fill="#ffffff" opacity="0.9"/>
    <polygon points="170,320 158,342 170,338 182,346" fill="#ffffff" opacity="0.8"/>
    <!-- Coastal cliffs & Winding Highway -->
    <path d="M0 500 Q300 480 600 500 L600 800 L0 800 Z" fill="#1e293b"/>
    <!-- Winding road ribbon -->
    <path d="M-20 800 Q150 720 250 630 T360 550 T410 500" fill="none" stroke="#334155" stroke-width="48" stroke-linecap="round"/>
    <path d="M-20 800 Q150 720 250 630 T360 550 T410 500" fill="none" stroke="#cbd5e1" stroke-width="2.5" stroke-dasharray="14 10"/>
    <!-- Traveler vintage camper / SUV silhouette -->
    <rect x="235" y="605" width="45" height="26" rx="4" fill="#0f172a"/>
    <circle cx="245" cy="632" r="6" fill="#020617"/>
    <circle cx="270" cy="632" r="6" fill="#020617"/>
    <!-- Warm amber road glow -->
    <ellipse cx="255" cy="620" rx="60" ry="25" fill="#f59e0b" opacity="0.3" filter="blur(15px)"/>
  
  <!-- Vignette & Grain Overlay -->
  <rect width="100%" height="100%" fill="url(#vignette-travel)" />
</svg>